<svg width="366" height="122" viewBox="0 0 366 122" fill="none" xmlns="http://www.w3.org/2000/svg">
<path d="M152.761 97.293C152.761 101.863 151.602 105.457 149.284 108.074C146.98 110.691 143.77 112 139.655 112C135.45 112 132.201 110.717 129.909 108.152C127.631 105.574 126.491 101.941 126.491 97.2539C126.491 92.6055 127.637 89.0052 129.929 86.4531C132.221 83.888 135.476 82.6055 139.695 82.6055C143.796 82.6055 146.999 83.9076 149.304 86.5117C151.609 89.1159 152.761 92.7096 152.761 97.293ZM130.007 97.293C130.007 101.16 130.827 104.096 132.468 106.102C134.122 108.094 136.517 109.09 139.655 109.09C142.82 109.09 145.209 108.094 146.823 106.102C148.438 104.109 149.245 101.173 149.245 97.293C149.245 93.4518 148.438 90.5417 146.823 88.5625C145.222 86.5703 142.846 85.5742 139.695 85.5742C136.53 85.5742 134.122 86.5768 132.468 88.582C130.827 90.5742 130.007 93.4779 130.007 97.293Z" fill="#F5F5F5"/>
<path d="M168.82 112C167.427 112 166.151 111.746 164.992 111.238C163.846 110.717 162.883 109.923 162.102 108.855H161.867C162.023 110.105 162.102 111.29 162.102 112.41V121.219H158.859V90.2031H161.496L161.945 93.1328H162.102C162.935 91.9609 163.905 91.1146 165.012 90.5938C166.118 90.0729 167.388 89.8125 168.82 89.8125C171.659 89.8125 173.846 90.7826 175.383 92.7227C176.932 94.6628 177.707 97.3841 177.707 100.887C177.707 104.402 176.919 107.137 175.344 109.09C173.781 111.03 171.607 112 168.82 112ZM168.352 92.5664C166.164 92.5664 164.582 93.1719 163.605 94.3828C162.629 95.5938 162.128 97.5208 162.102 100.164V100.887C162.102 103.895 162.603 106.049 163.605 107.352C164.608 108.641 166.216 109.285 168.43 109.285C170.279 109.285 171.724 108.536 172.766 107.039C173.82 105.542 174.348 103.478 174.348 100.848C174.348 98.1784 173.82 96.1341 172.766 94.7148C171.724 93.2826 170.253 92.5664 168.352 92.5664Z" fill="#F5F5F5"/>
<path d="M192.634 112C189.47 112 186.97 111.036 185.134 109.109C183.311 107.182 182.399 104.507 182.399 101.082C182.399 97.6315 183.246 94.8906 184.938 92.8594C186.644 90.8281 188.929 89.8125 191.794 89.8125C194.476 89.8125 196.598 90.6979 198.161 92.4688C199.723 94.2266 200.505 96.5508 200.505 99.4414V101.492H185.759C185.824 104.005 186.455 105.913 187.653 107.215C188.864 108.517 190.563 109.168 192.751 109.168C195.055 109.168 197.334 108.686 199.587 107.723V110.613C198.441 111.108 197.354 111.46 196.325 111.668C195.309 111.889 194.079 112 192.634 112ZM191.755 92.5273C190.036 92.5273 188.662 93.0872 187.634 94.207C186.618 95.3268 186.019 96.8763 185.837 98.8555H197.028C197.028 96.8112 196.572 95.2487 195.661 94.168C194.749 93.0742 193.447 92.5273 191.755 92.5273Z" fill="#F5F5F5"/>
<path d="M220.9 111.609V97.7617C220.9 96.0169 220.503 94.7148 219.709 93.8555C218.914 92.9961 217.671 92.5664 215.978 92.5664C213.739 92.5664 212.098 93.1719 211.056 94.3828C210.015 95.5938 209.494 97.5924 209.494 100.379V111.609H206.252V90.2031H208.888L209.416 93.1328H209.572C210.236 92.0781 211.167 91.2643 212.365 90.6914C213.563 90.1055 214.897 89.8125 216.369 89.8125C218.947 89.8125 220.887 90.4375 222.189 91.6875C223.491 92.9245 224.142 94.9102 224.142 97.6445V111.609H220.9Z" fill="#F5F5F5"/>
<path d="M258.214 104.012C258.214 106.525 257.303 108.484 255.48 109.891C253.657 111.297 251.183 112 248.058 112C244.672 112 242.068 111.564 240.245 110.691V107.488C241.417 107.983 242.693 108.374 244.073 108.66C245.454 108.947 246.821 109.09 248.175 109.09C250.389 109.09 252.055 108.673 253.175 107.84C254.295 106.993 254.855 105.822 254.855 104.324C254.855 103.335 254.653 102.527 254.249 101.902C253.859 101.264 253.195 100.678 252.257 100.145C251.333 99.6107 249.92 99.0052 248.019 98.3281C245.362 97.3776 243.461 96.2513 242.316 94.9492C241.183 93.6471 240.616 91.9479 240.616 89.8516C240.616 87.651 241.443 85.8997 243.097 84.5977C244.751 83.2956 246.938 82.6445 249.659 82.6445C252.498 82.6445 255.109 83.1654 257.491 84.207L256.456 87.0977C254.099 86.1081 251.808 85.6133 249.581 85.6133C247.823 85.6133 246.45 85.9909 245.46 86.7461C244.471 87.5013 243.976 88.5495 243.976 89.8906C243.976 90.8802 244.158 91.694 244.523 92.332C244.887 92.957 245.499 93.5365 246.359 94.0703C247.231 94.5911 248.559 95.1706 250.343 95.8086C253.338 96.8763 255.395 98.0221 256.515 99.2461C257.648 100.47 258.214 102.059 258.214 104.012Z" fill="#F5F5F5"/>
<path d="M282.242 100.887C282.242 104.376 281.363 107.104 279.605 109.07C277.848 111.023 275.419 112 272.32 112C270.406 112 268.707 111.551 267.223 110.652C265.738 109.754 264.592 108.465 263.785 106.785C262.978 105.105 262.574 103.139 262.574 100.887C262.574 97.3971 263.447 94.6823 265.191 92.7422C266.936 90.7891 269.358 89.8125 272.457 89.8125C275.452 89.8125 277.828 90.8086 279.586 92.8008C281.357 94.793 282.242 97.4883 282.242 100.887ZM265.934 100.887C265.934 103.621 266.48 105.704 267.574 107.137C268.668 108.569 270.276 109.285 272.398 109.285C274.521 109.285 276.129 108.576 277.223 107.156C278.329 105.724 278.883 103.634 278.883 100.887C278.883 98.1654 278.329 96.1016 277.223 94.6953C276.129 93.276 274.508 92.5664 272.359 92.5664C270.237 92.5664 268.635 93.263 267.555 94.6562C266.474 96.0495 265.934 98.1263 265.934 100.887Z" fill="#F5F5F5"/>
<path d="M291.192 90.2031V104.09C291.192 105.835 291.589 107.137 292.384 107.996C293.178 108.855 294.421 109.285 296.114 109.285C298.354 109.285 299.988 108.673 301.016 107.449C302.058 106.225 302.579 104.227 302.579 101.453V90.2031H305.821V111.609H303.145L302.677 108.738H302.501C301.837 109.793 300.912 110.6 299.727 111.16C298.555 111.72 297.214 112 295.704 112C293.1 112 291.147 111.382 289.845 110.145C288.555 108.908 287.911 106.928 287.911 104.207V90.2031H291.192Z" fill="#F5F5F5"/>
<path d="M322.681 89.8125C323.632 89.8125 324.485 89.8906 325.24 90.0469L324.791 93.0547C323.905 92.8594 323.124 92.7617 322.447 92.7617C320.715 92.7617 319.231 93.4648 317.994 94.8711C316.77 96.2773 316.158 98.0286 316.158 100.125V111.609H312.916V90.2031H315.591L315.962 94.168H316.119C316.913 92.7747 317.87 91.7005 318.99 90.9453C320.11 90.1901 321.34 89.8125 322.681 89.8125Z" fill="#F5F5F5"/>
<path d="M337.998 112C334.899 112 332.497 111.049 330.791 109.148C329.099 107.234 328.252 104.533 328.252 101.043C328.252 97.4622 329.112 94.6953 330.83 92.7422C332.562 90.7891 335.023 89.8125 338.213 89.8125C339.242 89.8125 340.271 89.9232 341.299 90.1445C342.328 90.3659 343.135 90.6263 343.721 90.9258L342.725 93.6797C342.009 93.3932 341.228 93.1589 340.381 92.9766C339.535 92.7812 338.786 92.6836 338.135 92.6836C333.786 92.6836 331.612 95.457 331.612 101.004C331.612 103.634 332.139 105.652 333.194 107.059C334.261 108.465 335.837 109.168 337.92 109.168C339.704 109.168 341.534 108.784 343.409 108.016V110.887C341.976 111.629 340.173 112 337.998 112Z" fill="#F5F5F5"/>
<path d="M357.749 112C354.585 112 352.085 111.036 350.249 109.109C348.426 107.182 347.515 104.507 347.515 101.082C347.515 97.6315 348.361 94.8906 350.054 92.8594C351.76 90.8281 354.045 89.8125 356.909 89.8125C359.592 89.8125 361.714 90.6979 363.277 92.4688C364.839 94.2266 365.62 96.5508 365.62 99.4414V101.492H350.874C350.939 104.005 351.571 105.913 352.769 107.215C353.98 108.517 355.679 109.168 357.866 109.168C360.171 109.168 362.45 108.686 364.702 107.723V110.613C363.557 111.108 362.469 111.46 361.441 111.668C360.425 111.889 359.195 112 357.749 112ZM356.87 92.5273C355.152 92.5273 353.778 93.0872 352.749 94.207C351.734 95.3268 351.135 96.8763 350.952 98.8555H362.144C362.144 96.8112 361.688 95.2487 360.777 94.168C359.865 93.0742 358.563 92.5273 356.87 92.5273Z" fill="#F5F5F5"/>
<path d="M126.515 71.6094V26.9927H135.976V71.6094H126.515Z" fill="#F5F5F5"/>
<path d="M156.827 71.6094H147.519V26.9927H173.092V34.7441H156.827V46.2493H171.963V53.9702H156.827V71.6094Z" fill="#F5F5F5"/>
<path d="M191.593 47.9888H194.706C197.615 47.9888 199.792 47.4191 201.237 46.2798C202.681 45.1201 203.404 43.4417 203.404 41.2444C203.404 39.0268 202.793 37.389 201.573 36.3311C200.372 35.2731 198.48 34.7441 195.896 34.7441H191.593V47.9888ZM212.956 40.9087C212.956 45.7101 211.45 49.3824 208.439 51.9255C205.448 54.4687 201.186 55.7402 195.652 55.7402H191.593V71.6094H182.133V26.9927H196.385C201.796 26.9927 205.906 28.1625 208.714 30.5022C211.542 32.8215 212.956 36.2904 212.956 40.9087Z" fill="#F5F5F5"/>
<path d="M247.387 71.6094H221.691V26.9927H247.387V34.7441H231.151V44.5403H246.258V52.2917H231.151V63.7969H247.387V71.6094Z" fill="#F5F5F5"/>
<path d="M63.75 67.3494C63.75 64.5884 65.9886 62.3501 68.75 62.3501H108.75C111.511 62.3501 113.75 64.5884 113.75 67.3494V107.343C113.75 110.104 111.511 112.343 108.75 112.343H68.75C65.9886 112.343 63.75 110.104 63.75 107.343V67.3494Z" fill="#2F9E41"/>
<path d="M3.75 67.3494C3.75 64.5884 5.98858 62.3501 8.75 62.3501H48.75C51.5114 62.3501 53.75 64.5884 53.75 67.3494V107.343C53.75 110.104 51.5114 112.343 48.75 112.343H8.75C5.98858 112.343 3.75 110.104 3.75 107.343V67.3494Z" fill="#2F9E41"/>
<path d="M63.75 7.3583C63.75 4.59729 65.9886 2.35904 68.75 2.35904H108.75C111.511 2.35904 113.75 4.59728 113.75 7.3583V47.3524C113.75 50.1134 111.511 52.3516 108.75 52.3516H68.75C65.9886 52.3516 63.75 50.1134 63.75 47.3524V7.3583Z" fill="#2F9E41"/>
<path d="M28.7429 0.109375C12.8975 0.109375 0 12.6143 0 27.9916C0 39.4597 7.4125 49.905 18.4391 53.9823C18.8997 54.1574 19.4171 54.1294 19.8635 53.9262C20.31 53.716 20.6501 53.3377 20.7918 52.8754L26.1847 36.1811C26.4398 35.3895 26.0855 34.5348 25.3414 34.1355C23.0099 32.8885 21.5643 30.5346 21.5643 27.9916C21.5643 24.1455 24.7886 21.021 28.75 21.021C32.7114 21.021 35.9357 24.1455 35.9357 27.9916C35.9357 30.5346 34.4901 32.8815 32.1586 34.1355C31.4145 34.5348 31.0531 35.3895 31.3153 36.1811L36.7082 52.8754C36.857 53.3377 37.19 53.709 37.6365 53.9262C37.8845 54.0383 38.1538 54.1014 38.4231 54.1014C38.6357 54.1014 38.8554 54.0663 39.0609 53.9893C50.0946 49.912 57.5 39.4667 57.5 27.9986C57.4929 12.6143 44.5955 0.109375 28.7429 0.109375Z" fill="#C8191E"/>
</svg>
