<svg width="366" height="122" viewBox="0 0 366 122" fill="none" xmlns="http://www.w3.org/2000/svg">
<path d="M152.761 97.1836C152.761 101.754 151.602 105.348 149.284 107.965C146.98 110.582 143.77 111.891 139.655 111.891C135.45 111.891 132.201 110.608 129.909 108.043C127.631 105.465 126.491 101.832 126.491 97.1445C126.491 92.4961 127.637 88.8958 129.929 86.3438C132.221 83.7786 135.476 82.4961 139.695 82.4961C143.796 82.4961 146.999 83.7982 149.304 86.4023C151.609 89.0065 152.761 92.6003 152.761 97.1836ZM130.007 97.1836C130.007 101.051 130.827 103.987 132.468 105.992C134.122 107.984 136.517 108.98 139.655 108.98C142.82 108.98 145.209 107.984 146.823 105.992C148.438 104 149.245 101.064 149.245 97.1836C149.245 93.3424 148.438 90.4323 146.823 88.4531C145.222 86.4609 142.846 85.4648 139.695 85.4648C136.53 85.4648 134.122 86.4674 132.468 88.4727C130.827 90.4648 130.007 93.3685 130.007 97.1836Z" fill="#1C1E20"/>
<path d="M168.82 111.891C167.427 111.891 166.151 111.637 164.992 111.129C163.846 110.608 162.883 109.814 162.102 108.746H161.867C162.023 109.996 162.102 111.181 162.102 112.301V121.109H158.859V90.0938H161.496L161.945 93.0234H162.102C162.935 91.8516 163.905 91.0052 165.012 90.4844C166.118 89.9635 167.388 89.7031 168.82 89.7031C171.659 89.7031 173.846 90.6732 175.383 92.6133C176.932 94.5534 177.707 97.2747 177.707 100.777C177.707 104.293 176.919 107.027 175.344 108.98C173.781 110.921 171.607 111.891 168.82 111.891ZM168.352 92.457C166.164 92.457 164.582 93.0625 163.605 94.2734C162.629 95.4844 162.128 97.4115 162.102 100.055V100.777C162.102 103.785 162.603 105.94 163.605 107.242C164.608 108.531 166.216 109.176 168.43 109.176C170.279 109.176 171.724 108.427 172.766 106.93C173.82 105.432 174.348 103.368 174.348 100.738C174.348 98.069 173.82 96.0247 172.766 94.6055C171.724 93.1732 170.253 92.457 168.352 92.457Z" fill="#1C1E20"/>
<path d="M192.634 111.891C189.47 111.891 186.97 110.927 185.134 109C183.311 107.073 182.399 104.397 182.399 100.973C182.399 97.5221 183.246 94.7812 184.938 92.75C186.644 90.7188 188.929 89.7031 191.794 89.7031C194.476 89.7031 196.598 90.5885 198.161 92.3594C199.723 94.1172 200.505 96.4414 200.505 99.332V101.383H185.759C185.824 103.896 186.455 105.803 187.653 107.105C188.864 108.408 190.563 109.059 192.751 109.059C195.055 109.059 197.334 108.577 199.587 107.613V110.504C198.441 110.999 197.354 111.35 196.325 111.559C195.309 111.78 194.079 111.891 192.634 111.891ZM191.755 92.418C190.036 92.418 188.662 92.9779 187.634 94.0977C186.618 95.2174 186.019 96.7669 185.837 98.7461H197.028C197.028 96.7018 196.572 95.1393 195.661 94.0586C194.749 92.9648 193.447 92.418 191.755 92.418Z" fill="#1C1E20"/>
<path d="M220.9 111.5V97.6523C220.9 95.9076 220.503 94.6055 219.709 93.7461C218.914 92.8867 217.671 92.457 215.978 92.457C213.739 92.457 212.098 93.0625 211.056 94.2734C210.015 95.4844 209.494 97.4831 209.494 100.27V111.5H206.252V90.0938H208.888L209.416 93.0234H209.572C210.236 91.9688 211.167 91.1549 212.365 90.582C213.563 89.9961 214.897 89.7031 216.369 89.7031C218.947 89.7031 220.887 90.3281 222.189 91.5781C223.491 92.8151 224.142 94.8008 224.142 97.5352V111.5H220.9Z" fill="#1C1E20"/>
<path d="M258.214 103.902C258.214 106.415 257.303 108.375 255.48 109.781C253.657 111.188 251.183 111.891 248.058 111.891C244.672 111.891 242.068 111.454 240.245 110.582V107.379C241.417 107.874 242.693 108.264 244.073 108.551C245.454 108.837 246.821 108.98 248.175 108.98C250.389 108.98 252.055 108.564 253.175 107.73C254.295 106.884 254.855 105.712 254.855 104.215C254.855 103.225 254.653 102.418 254.249 101.793C253.859 101.155 253.195 100.569 252.257 100.035C251.333 99.5013 249.92 98.8958 248.019 98.2188C245.362 97.2682 243.461 96.1419 242.316 94.8398C241.183 93.5378 240.616 91.8385 240.616 89.7422C240.616 87.5417 241.443 85.7904 243.097 84.4883C244.751 83.1862 246.938 82.5352 249.659 82.5352C252.498 82.5352 255.109 83.056 257.491 84.0977L256.456 86.9883C254.099 85.9987 251.808 85.5039 249.581 85.5039C247.823 85.5039 246.45 85.8815 245.46 86.6367C244.471 87.3919 243.976 88.4401 243.976 89.7812C243.976 90.7708 244.158 91.5846 244.523 92.2227C244.887 92.8477 245.499 93.4271 246.359 93.9609C247.231 94.4818 248.559 95.0612 250.343 95.6992C253.338 96.7669 255.395 97.9128 256.515 99.1367C257.648 100.361 258.214 101.949 258.214 103.902Z" fill="#1C1E20"/>
<path d="M282.242 100.777C282.242 104.267 281.363 106.995 279.605 108.961C277.848 110.914 275.419 111.891 272.32 111.891C270.406 111.891 268.707 111.441 267.223 110.543C265.738 109.645 264.592 108.355 263.785 106.676C262.978 104.996 262.574 103.03 262.574 100.777C262.574 97.2878 263.447 94.5729 265.191 92.6328C266.936 90.6797 269.358 89.7031 272.457 89.7031C275.452 89.7031 277.828 90.6992 279.586 92.6914C281.357 94.6836 282.242 97.3789 282.242 100.777ZM265.934 100.777C265.934 103.512 266.48 105.595 267.574 107.027C268.668 108.46 270.276 109.176 272.398 109.176C274.521 109.176 276.129 108.466 277.223 107.047C278.329 105.615 278.883 103.525 278.883 100.777C278.883 98.056 278.329 95.9922 277.223 94.5859C276.129 93.1667 274.508 92.457 272.359 92.457C270.237 92.457 268.635 93.1536 267.555 94.5469C266.474 95.9401 265.934 98.0169 265.934 100.777Z" fill="#1C1E20"/>
<path d="M291.192 90.0938V103.98C291.192 105.725 291.589 107.027 292.384 107.887C293.178 108.746 294.421 109.176 296.114 109.176C298.354 109.176 299.988 108.564 301.016 107.34C302.058 106.116 302.579 104.117 302.579 101.344V90.0938H305.821V111.5H303.145L302.677 108.629H302.501C301.837 109.684 300.912 110.491 299.727 111.051C298.555 111.611 297.214 111.891 295.704 111.891C293.1 111.891 291.147 111.272 289.845 110.035C288.555 108.798 287.911 106.819 287.911 104.098V90.0938H291.192Z" fill="#1C1E20"/>
<path d="M322.681 89.7031C323.632 89.7031 324.485 89.7812 325.24 89.9375L324.791 92.9453C323.905 92.75 323.124 92.6523 322.447 92.6523C320.715 92.6523 319.231 93.3555 317.994 94.7617C316.77 96.168 316.158 97.9193 316.158 100.016V111.5H312.916V90.0938H315.591L315.962 94.0586H316.119C316.913 92.6654 317.87 91.5911 318.99 90.8359C320.11 90.0807 321.34 89.7031 322.681 89.7031Z" fill="#1C1E20"/>
<path d="M337.998 111.891C334.899 111.891 332.497 110.94 330.791 109.039C329.099 107.125 328.252 104.423 328.252 100.934C328.252 97.3529 329.112 94.5859 330.83 92.6328C332.562 90.6797 335.023 89.7031 338.213 89.7031C339.242 89.7031 340.271 89.8138 341.299 90.0352C342.328 90.2565 343.135 90.5169 343.721 90.8164L342.725 93.5703C342.009 93.2839 341.228 93.0495 340.381 92.8672C339.535 92.6719 338.786 92.5742 338.135 92.5742C333.786 92.5742 331.612 95.3477 331.612 100.895C331.612 103.525 332.139 105.543 333.194 106.949C334.261 108.355 335.837 109.059 337.92 109.059C339.704 109.059 341.534 108.674 343.409 107.906V110.777C341.976 111.52 340.173 111.891 337.998 111.891Z" fill="#1C1E20"/>
<path d="M357.749 111.891C354.585 111.891 352.085 110.927 350.249 109C348.426 107.073 347.515 104.397 347.515 100.973C347.515 97.5221 348.361 94.7812 350.054 92.75C351.76 90.7188 354.045 89.7031 356.909 89.7031C359.592 89.7031 361.714 90.5885 363.277 92.3594C364.839 94.1172 365.62 96.4414 365.62 99.332V101.383H350.874C350.939 103.896 351.571 105.803 352.769 107.105C353.98 108.408 355.679 109.059 357.866 109.059C360.171 109.059 362.45 108.577 364.702 107.613V110.504C363.557 110.999 362.469 111.35 361.441 111.559C360.425 111.78 359.195 111.891 357.749 111.891ZM356.87 92.418C355.152 92.418 353.778 92.9779 352.749 94.0977C351.734 95.2174 351.135 96.7669 350.952 98.7461H362.144C362.144 96.7018 361.688 95.1393 360.777 94.0586C359.865 92.9648 358.563 92.418 356.87 92.418Z" fill="#1C1E20"/>
<path d="M126.515 71.5V26.8833H135.976V71.5H126.515Z" fill="#1C1E20"/>
<path d="M156.827 71.5H147.519V26.8833H173.092V34.6348H156.827V46.1399H171.963V53.8608H156.827V71.5Z" fill="#1C1E20"/>
<path d="M191.593 47.8794H194.706C197.615 47.8794 199.792 47.3097 201.237 46.1704C202.681 45.0107 203.404 43.3323 203.404 41.135C203.404 38.9174 202.793 37.2796 201.573 36.2217C200.372 35.1637 198.48 34.6348 195.896 34.6348H191.593V47.8794ZM212.956 40.7993C212.956 45.6007 211.45 49.273 208.439 51.8162C205.448 54.3593 201.186 55.6309 195.652 55.6309H191.593V71.5H182.133V26.8833H196.385C201.796 26.8833 205.906 28.0531 208.714 30.3928C211.542 32.7122 212.956 36.181 212.956 40.7993Z" fill="#1C1E20"/>
<path d="M247.387 71.5H221.691V26.8833H247.387V34.6348H231.151V44.4309H246.258V52.1824H231.151V63.6875H247.387V71.5Z" fill="#1C1E20"/>
<path d="M63.75 67.24C63.75 64.479 65.9886 62.2408 68.75 62.2408H108.75C111.511 62.2408 113.75 64.479 113.75 67.24V107.234C113.75 109.995 111.511 112.233 108.75 112.233H68.75C65.9886 112.233 63.75 109.995 63.75 107.234V67.24Z" fill="#2F9E41"/>
<path d="M3.75 67.24C3.75 64.479 5.98858 62.2408 8.75 62.2408H48.75C51.5114 62.2408 53.75 64.479 53.75 67.24V107.234C53.75 109.995 51.5114 112.233 48.75 112.233H8.75C5.98858 112.233 3.75 109.995 3.75 107.234V67.24Z" fill="#2F9E41"/>
<path d="M63.75 7.24892C63.75 4.48791 65.9886 2.24966 68.75 2.24966H108.75C111.511 2.24966 113.75 4.48791 113.75 7.24892V47.243C113.75 50.004 111.511 52.2422 108.75 52.2422H68.75C65.9886 52.2422 63.75 50.004 63.75 47.243V7.24892Z" fill="#2F9E41"/>
<path d="M28.7429 0C12.8975 0 0 12.505 0 27.8822C0 39.3503 7.4125 49.7956 18.4391 53.8729C18.8997 54.048 19.4171 54.02 19.8635 53.8168C20.31 53.6067 20.6501 53.2284 20.7918 52.766L26.1847 36.0717C26.4398 35.2801 26.0855 34.4254 25.3414 34.0261C23.0099 32.7791 21.5643 30.4252 21.5643 27.8822C21.5643 24.0361 24.7886 20.9116 28.75 20.9116C32.7114 20.9116 35.9357 24.0361 35.9357 27.8822C35.9357 30.4252 34.4901 32.7721 32.1586 34.0261C31.4145 34.4254 31.0531 35.2801 31.3153 36.0717L36.7082 52.766C36.857 53.2284 37.19 53.5997 37.6365 53.8168C37.8845 53.9289 38.1538 53.992 38.4231 53.992C38.6357 53.992 38.8554 53.957 39.0609 53.8799C50.0946 49.8026 57.5 39.3573 57.5 27.8892C57.4929 12.505 44.5955 0 28.7429 0Z" fill="#C8191E"/>
</svg>
